<svg width="48" height="22" viewBox="0 0 48 22" fill="none" xmlns="http://www.w3.org/2000/svg">
<path d="M0 2C0 0.89543 0.895431 0 2 0H46C47.1046 0 48 0.895431 48 2V20C48 21.1046 47.1046 22 46 22H2C0.895431 22 0 21.1046 0 20V2Z" fill="#3B79C3"/>
<path d="M5.86475 15V7.12598H9.35596C10.0578 7.12598 10.5913 7.19759 10.9565 7.34082C11.3218 7.48047 11.6136 7.72933 11.832 8.0874C12.0505 8.44548 12.1597 8.84115 12.1597 9.27441C12.1597 9.83301 11.9788 10.3039 11.6172 10.687C11.2555 11.0701 10.6969 11.3136 9.94141 11.4175C10.2171 11.55 10.4266 11.6807 10.5698 11.8096C10.8742 12.0889 11.1624 12.438 11.4346 12.8569L12.8042 15H11.4937L10.4517 13.3618C10.1473 12.8892 9.89665 12.5275 9.69971 12.2769C9.50277 12.0262 9.32552 11.8507 9.16797 11.7505C9.014 11.6502 8.85645 11.5804 8.69531 11.541C8.57715 11.516 8.38379 11.5034 8.11523 11.5034H6.90674V15H5.86475ZM6.90674 10.6011H9.14648C9.62272 10.6011 9.99512 10.5527 10.2637 10.4561C10.5322 10.3558 10.7363 10.1982 10.876 9.9834C11.0156 9.76497 11.0854 9.52865 11.0854 9.27441C11.0854 8.90202 10.9494 8.59587 10.6772 8.35596C10.4087 8.11605 9.98258 7.99609 9.39893 7.99609H6.90674V10.6011ZM13.6797 8.23779V7.12598H14.6465V8.23779H13.6797ZM13.6797 15V9.2959H14.6465V15H13.6797ZM15.9463 15.4727L16.8862 15.6123C16.9256 15.9023 17.0348 16.1136 17.2139 16.2461C17.4538 16.4251 17.7814 16.5146 18.1968 16.5146C18.6444 16.5146 18.9899 16.4251 19.2334 16.2461C19.4769 16.0671 19.6416 15.8164 19.7275 15.4941C19.7777 15.2972 19.8009 14.8836 19.7974 14.2534C19.3748 14.7511 18.8485 15 18.2183 15C17.4341 15 16.8271 14.7171 16.3975 14.1514C15.9678 13.5856 15.7529 12.9071 15.7529 12.1157C15.7529 11.5715 15.8514 11.0701 16.0483 10.6118C16.2453 10.1499 16.5299 9.79362 16.9023 9.54297C17.2783 9.29232 17.7188 9.16699 18.2236 9.16699C18.8968 9.16699 19.4518 9.43913 19.8887 9.9834V9.2959H20.7803V14.2266C20.7803 15.1146 20.689 15.743 20.5063 16.1118C20.3273 16.4842 20.0409 16.7778 19.647 16.9927C19.2567 17.2075 18.7751 17.3149 18.2021 17.3149C17.5218 17.3149 16.9722 17.161 16.5532 16.853C16.1343 16.5487 15.932 16.0885 15.9463 15.4727ZM16.7466 12.0459C16.7466 12.7943 16.8952 13.3403 17.1924 13.6841C17.4896 14.0278 17.862 14.1997 18.3096 14.1997C18.7536 14.1997 19.126 14.0296 19.4268 13.6895C19.7275 13.3457 19.8779 12.8086 19.8779 12.0781C19.8779 11.3799 19.7222 10.8535 19.4106 10.499C19.1027 10.1445 18.7303 9.96729 18.2935 9.96729C17.8638 9.96729 17.4985 10.1427 17.1978 10.4937C16.897 10.841 16.7466 11.3584 16.7466 12.0459ZM22.2466 15V7.12598H23.2134V9.95117C23.6646 9.42839 24.2339 9.16699 24.9214 9.16699C25.3439 9.16699 25.7109 9.25114 26.0225 9.41943C26.334 9.58415 26.556 9.81331 26.6885 10.1069C26.8245 10.4006 26.8926 10.8267 26.8926 11.3853V15H25.9258V11.3853C25.9258 10.9019 25.8201 10.5509 25.6089 10.3325C25.4012 10.1105 25.1058 9.99951 24.7227 9.99951C24.4362 9.99951 24.1659 10.0747 23.9116 10.2251C23.661 10.3719 23.4819 10.5724 23.3745 10.8267C23.2671 11.0809 23.2134 11.4318 23.2134 11.8794V15H22.2466ZM30.4805 14.1353L30.6201 14.9893C30.348 15.0465 30.1045 15.0752 29.8896 15.0752C29.5387 15.0752 29.2666 15.0197 29.0732 14.9087C28.8799 14.7977 28.7438 14.6527 28.665 14.4736C28.5863 14.291 28.5469 13.9097 28.5469 13.3296V10.0479H27.8379V9.2959H28.5469V7.8833L29.5083 7.30322V9.2959H30.4805V10.0479H29.5083V13.3833C29.5083 13.659 29.5244 13.8363 29.5566 13.915C29.5924 13.9938 29.6479 14.0565 29.7231 14.103C29.8019 14.1496 29.9129 14.1729 30.0562 14.1729C30.1636 14.1729 30.305 14.1603 30.4805 14.1353ZM39.3052 14.0708V15H34.1006C34.0934 14.7673 34.131 14.5435 34.2134 14.3286C34.3459 13.9741 34.5571 13.625 34.8472 13.2812C35.1408 12.9375 35.5633 12.54 36.1147 12.0889C36.9705 11.387 37.5488 10.832 37.8496 10.4238C38.1504 10.012 38.3008 9.62354 38.3008 9.2583C38.3008 8.87516 38.1629 8.5529 37.8872 8.2915C37.6151 8.02653 37.2588 7.89404 36.8184 7.89404C36.3529 7.89404 35.9805 8.03369 35.7012 8.31299C35.4219 8.59229 35.2804 8.979 35.2769 9.47314L34.2832 9.37109C34.3512 8.62988 34.6073 8.06592 35.0513 7.6792C35.4953 7.2889 36.0915 7.09375 36.8398 7.09375C37.5954 7.09375 38.1934 7.30322 38.6338 7.72217C39.0742 8.14111 39.2944 8.66032 39.2944 9.27979C39.2944 9.59489 39.23 9.90462 39.1011 10.209C38.9722 10.5133 38.7573 10.8338 38.4565 11.1704C38.1593 11.507 37.6634 11.9689 36.9688 12.5562C36.3887 13.0431 36.0163 13.3743 35.8516 13.5498C35.6868 13.7217 35.5508 13.8953 35.4434 14.0708H39.3052Z" fill="white"/>
</svg>
